<svg id="visual" viewBox="0 0 900 600" width="900" height="600" xmlns="http://www.w3.org/2000/svg" xmlns:xlink="http://www.w3.org/1999/xlink" version="1.1"><g stroke-width="1" stroke-linejoin="bevel"><path d="M419 262.1L371 230.1L391 319.9Z" fill="#1d4e6b" stroke="#1d4e6b"></path><path d="M371 230.1L325 306.9L391 319.9Z" fill="#19435d" stroke="#19435d"></path><path d="M371 230.1L303 201.4L325 306.9Z" fill="#0c2435" stroke="#0c2435"></path><path d="M303 201.4L266 249.1L325 306.9Z" fill="#15384f" stroke="#15384f"></path><path d="M369 412.6L385 396.9L325 306.9Z" fill="#246688" stroke="#246688"></path><path d="M325 306.9L385 396.9L391 319.9Z" fill="#277297" stroke="#277297"></path><path d="M391 319.9L461 375.6L419 262.1Z" fill="#15384f" stroke="#15384f"></path><path d="M385 396.9L461 375.6L391 319.9Z" fill="#1d4e6b" stroke="#1d4e6b"></path><path d="M214 362.9L369 412.6L325 306.9Z" fill="#205a7a" stroke="#205a7a"></path><path d="M503 463.3L505 396.9L461 375.6Z" fill="#277297" stroke="#277297"></path><path d="M461 375.6L512 270.1L419 262.1Z" fill="#0c2435" stroke="#0c2435"></path><path d="M419 262.1L506 216.4L371 230.1Z" fill="#246688" stroke="#246688"></path><path d="M371 230.1L340 131.7L303 201.4Z" fill="#277297" stroke="#277297"></path><path d="M512 270.1L506 216.4L419 262.1Z" fill="#1d4e6b" stroke="#1d4e6b"></path><path d="M444 81.7L340 131.7L371 230.1Z" fill="#297ea6" stroke="#297ea6"></path><path d="M303 201.4L226 172.4L266 249.1Z" fill="#205a7a" stroke="#205a7a"></path><path d="M130 257.1L205 308.1L266 249.1Z" fill="#112e42" stroke="#112e42"></path><path d="M266 249.1L205 308.1L325 306.9Z" fill="#277297" stroke="#277297"></path><path d="M503 463.3L461 375.6L385 396.9Z" fill="#246688" stroke="#246688"></path><path d="M461 375.6L505 396.9L512 270.1Z" fill="#0c2435" stroke="#0c2435"></path><path d="M268 115.4L226 172.4L303 201.4Z" fill="#297ea6" stroke="#297ea6"></path><path d="M205 308.1L214 362.9L325 306.9Z" fill="#1d4e6b" stroke="#1d4e6b"></path><path d="M340 131.7L268 115.4L303 201.4Z" fill="#15384f" stroke="#15384f"></path><path d="M506 216.4L444 81.7L371 230.1Z" fill="#297ea6" stroke="#297ea6"></path><path d="M340 131.7L309 0L268 115.4Z" fill="#00101c" stroke="#00101c"></path><path d="M506 216.4L496 105.7L444 81.7Z" fill="#00101c" stroke="#00101c"></path><path d="M660 160.4L541 150.4L506 216.4Z" fill="#19435d" stroke="#19435d"></path><path d="M660 160.4L506 216.4L512 270.1Z" fill="#246688" stroke="#246688"></path><path d="M541 150.4L496 105.7L506 216.4Z" fill="#205a7a" stroke="#205a7a"></path><path d="M309 0L245 107.7L268 115.4Z" fill="#297ea6" stroke="#297ea6"></path><path d="M268 115.4L245 107.7L226 172.4Z" fill="#112e42" stroke="#112e42"></path><path d="M419 515.3L503 463.3L385 396.9Z" fill="#15384f" stroke="#15384f"></path><path d="M505 396.9L583 407.9L512 270.1Z" fill="#277297" stroke="#277297"></path><path d="M419 515.3L385 396.9L369 412.6Z" fill="#15384f" stroke="#15384f"></path><path d="M204 493.6L419 515.3L369 412.6Z" fill="#112e42" stroke="#112e42"></path><path d="M150 381.6L206 451.6L214 362.9Z" fill="#081a28" stroke="#081a28"></path><path d="M214 362.9L206 451.6L369 412.6Z" fill="#112e42" stroke="#112e42"></path><path d="M113 163.4L130 257.1L226 172.4Z" fill="#277297" stroke="#277297"></path><path d="M226 172.4L130 257.1L266 249.1Z" fill="#246688" stroke="#246688"></path><path d="M205 308.1L150 381.6L214 362.9Z" fill="#0c2435" stroke="#0c2435"></path><path d="M503 463.3L583 407.9L505 396.9Z" fill="#081a28" stroke="#081a28"></path><path d="M130 257.1L150 381.6L205 308.1Z" fill="#15384f" stroke="#15384f"></path><path d="M419 515.3L438 518.3L503 463.3Z" fill="#00101c" stroke="#00101c"></path><path d="M503 463.3L599 446.6L583 407.9Z" fill="#277297" stroke="#277297"></path><path d="M245 107.7L160 121.7L226 172.4Z" fill="#205a7a" stroke="#205a7a"></path><path d="M153 524.3L202 484.3L206 451.6Z" fill="#0c2435" stroke="#0c2435"></path><path d="M206 451.6L204 493.6L369 412.6Z" fill="#205a7a" stroke="#205a7a"></path><path d="M419 515.3L431 600L438 518.3Z" fill="#1d4e6b" stroke="#1d4e6b"></path><path d="M153 524.3L204 493.6L202 484.3Z" fill="#112e42" stroke="#112e42"></path><path d="M202 484.3L204 493.6L206 451.6Z" fill="#081a28" stroke="#081a28"></path><path d="M436 0L332 0L444 81.7Z" fill="#297ea6" stroke="#297ea6"></path><path d="M444 81.7L332 0L340 131.7Z" fill="#246688" stroke="#246688"></path><path d="M245 107.7L111 53.7L160 121.7Z" fill="#246688" stroke="#246688"></path><path d="M590 477.6L599 446.6L503 463.3Z" fill="#15384f" stroke="#15384f"></path><path d="M690 311.1L660 160.4L512 270.1Z" fill="#112e42" stroke="#112e42"></path><path d="M557 0L436 0L444 81.7Z" fill="#205a7a" stroke="#205a7a"></path><path d="M557 0L444 81.7L496 105.7Z" fill="#246688" stroke="#246688"></path><path d="M332 0L309 0L340 131.7Z" fill="#277297" stroke="#277297"></path><path d="M160 121.7L113 163.4L226 172.4Z" fill="#00101c" stroke="#00101c"></path><path d="M59 394.9L153 524.3L150 381.6Z" fill="#19435d" stroke="#19435d"></path><path d="M603 547.3L590 477.6L503 463.3Z" fill="#081a28" stroke="#081a28"></path><path d="M690 311.1L512 270.1L583 407.9Z" fill="#246688" stroke="#246688"></path><path d="M541 150.4L557 0L496 105.7Z" fill="#112e42" stroke="#112e42"></path><path d="M660 160.4L657 145.7L541 150.4Z" fill="#00101c" stroke="#00101c"></path><path d="M730 316.1L690 311.1L713 417.6Z" fill="#205a7a" stroke="#205a7a"></path><path d="M713 417.6L690 311.1L583 407.9Z" fill="#00101c" stroke="#00101c"></path><path d="M235 581.3L405 600L419 515.3Z" fill="#0c2435" stroke="#0c2435"></path><path d="M557 600L603 547.3L503 463.3Z" fill="#277297" stroke="#277297"></path><path d="M405 600L431 600L419 515.3Z" fill="#246688" stroke="#246688"></path><path d="M657 145.7L557 0L541 150.4Z" fill="#19435d" stroke="#19435d"></path><path d="M150 381.6L153 524.3L206 451.6Z" fill="#277297" stroke="#277297"></path><path d="M204 493.6L235 581.3L419 515.3Z" fill="#297ea6" stroke="#297ea6"></path><path d="M59 394.9L150 381.6L130 257.1Z" fill="#297ea6" stroke="#297ea6"></path><path d="M153 524.3L235 581.3L204 493.6Z" fill="#297ea6" stroke="#297ea6"></path><path d="M0 294.9L59 394.9L130 257.1Z" fill="#205a7a" stroke="#205a7a"></path><path d="M117 0L111 53.7L245 107.7Z" fill="#246688" stroke="#246688"></path><path d="M160 121.7L111 53.7L113 163.4Z" fill="#081a28" stroke="#081a28"></path><path d="M0 176.4L0 271.1L130 257.1Z" fill="#277297" stroke="#277297"></path><path d="M557 600L503 463.3L438 518.3Z" fill="#112e42" stroke="#112e42"></path><path d="M590 477.6L713 417.6L599 446.6Z" fill="#297ea6" stroke="#297ea6"></path><path d="M147 600L226 600L235 581.3Z" fill="#112e42" stroke="#112e42"></path><path d="M235 581.3L226 600L405 600Z" fill="#081a28" stroke="#081a28"></path><path d="M713 417.6L583 407.9L599 446.6Z" fill="#081a28" stroke="#081a28"></path><path d="M690 311.1L764 191.4L660 160.4Z" fill="#277297" stroke="#277297"></path><path d="M660 160.4L734 75.7L657 145.7Z" fill="#0c2435" stroke="#0c2435"></path><path d="M603 547.3L713 417.6L590 477.6Z" fill="#15384f" stroke="#15384f"></path><path d="M431 600L557 600L438 518.3Z" fill="#081a28" stroke="#081a28"></path><path d="M0 176.4L130 257.1L113 163.4Z" fill="#15384f" stroke="#15384f"></path><path d="M0 271.1L0 294.9L130 257.1Z" fill="#0c2435" stroke="#0c2435"></path><path d="M309 0L117 0L245 107.7Z" fill="#112e42" stroke="#112e42"></path><path d="M0 79.7L0 176.4L113 163.4Z" fill="#00101c" stroke="#00101c"></path><path d="M713 417.6L757 325.9L730 316.1Z" fill="#246688" stroke="#246688"></path><path d="M730 316.1L764 191.4L690 311.1Z" fill="#081a28" stroke="#081a28"></path><path d="M557 600L587 600L603 547.3Z" fill="#277297" stroke="#277297"></path><path d="M778 522.3L786 487.3L713 417.6Z" fill="#0c2435" stroke="#0c2435"></path><path d="M0 79.7L113 163.4L111 53.7Z" fill="#277297" stroke="#277297"></path><path d="M81 600L147 600L153 524.3Z" fill="#297ea6" stroke="#297ea6"></path><path d="M153 524.3L147 600L235 581.3Z" fill="#1d4e6b" stroke="#1d4e6b"></path><path d="M0 457.3L153 524.3L59 394.9Z" fill="#1d4e6b" stroke="#1d4e6b"></path><path d="M757 325.9L764 191.4L730 316.1Z" fill="#297ea6" stroke="#297ea6"></path><path d="M657 145.7L676 0L557 0Z" fill="#19435d" stroke="#19435d"></path><path d="M117 0L80 0L111 53.7Z" fill="#112e42" stroke="#112e42"></path><path d="M734 75.7L676 0L657 145.7Z" fill="#15384f" stroke="#15384f"></path><path d="M764 191.4L734 75.7L660 160.4Z" fill="#0c2435" stroke="#0c2435"></path><path d="M0 294.9L0 447.6L59 394.9Z" fill="#1d4e6b" stroke="#1d4e6b"></path><path d="M0 447.6L0 457.3L59 394.9Z" fill="#15384f" stroke="#15384f"></path><path d="M80 0L0 79.7L111 53.7Z" fill="#15384f" stroke="#15384f"></path><path d="M734 75.7L713 0L676 0Z" fill="#297ea6" stroke="#297ea6"></path><path d="M0 457.3L81 600L153 524.3Z" fill="#277297" stroke="#277297"></path><path d="M764 191.4L812 169.4L734 75.7Z" fill="#112e42" stroke="#112e42"></path><path d="M734 75.7L766 0L713 0Z" fill="#0c2435" stroke="#0c2435"></path><path d="M840 193.1L812 169.4L764 191.4Z" fill="#205a7a" stroke="#205a7a"></path><path d="M713 417.6L851 372.9L757 325.9Z" fill="#0c2435" stroke="#0c2435"></path><path d="M757 325.9L840 193.1L764 191.4Z" fill="#1d4e6b" stroke="#1d4e6b"></path><path d="M778 522.3L713 417.6L603 547.3Z" fill="#112e42" stroke="#112e42"></path><path d="M80 0L0 0L0 79.7Z" fill="#19435d" stroke="#19435d"></path><path d="M745 600L778 522.3L603 547.3Z" fill="#00101c" stroke="#00101c"></path><path d="M851 372.9L840 193.1L757 325.9Z" fill="#246688" stroke="#246688"></path><path d="M837 54.7L766 0L734 75.7Z" fill="#1d4e6b" stroke="#1d4e6b"></path><path d="M837 54.7L734 75.7L812 169.4Z" fill="#081a28" stroke="#081a28"></path><path d="M875 400.6L851 372.9L786 487.3Z" fill="#0c2435" stroke="#0c2435"></path><path d="M786 487.3L851 372.9L713 417.6Z" fill="#205a7a" stroke="#205a7a"></path><path d="M587 600L745 600L603 547.3Z" fill="#0c2435" stroke="#0c2435"></path><path d="M900 434.6L875 400.6L900 461.3Z" fill="#297ea6" stroke="#297ea6"></path><path d="M0 457.3L0 600L81 600Z" fill="#0c2435" stroke="#0c2435"></path><path d="M900 210.1L837 54.7L840 193.1Z" fill="#297ea6" stroke="#297ea6"></path><path d="M840 193.1L837 54.7L812 169.4Z" fill="#277297" stroke="#277297"></path><path d="M900 380.9L875 400.6L900 434.6Z" fill="#19435d" stroke="#19435d"></path><path d="M851 372.9L900 212.4L840 193.1Z" fill="#081a28" stroke="#081a28"></path><path d="M900 380.9L900 212.4L851 372.9Z" fill="#1d4e6b" stroke="#1d4e6b"></path><path d="M900 212.4L900 210.1L840 193.1Z" fill="#081a28" stroke="#081a28"></path><path d="M875 400.6L786 487.3L900 461.3Z" fill="#277297" stroke="#277297"></path><path d="M875 400.6L900 380.9L851 372.9Z" fill="#246688" stroke="#246688"></path><path d="M900 461.3L786 487.3L778 522.3Z" fill="#19435d" stroke="#19435d"></path><path d="M852 600L900 461.3L778 522.3Z" fill="#277297" stroke="#277297"></path><path d="M745 600L852 600L778 522.3Z" fill="#19435d" stroke="#19435d"></path><path d="M900 210.1L900 25.7L837 54.7Z" fill="#277297" stroke="#277297"></path><path d="M837 54.7L900 0L766 0Z" fill="#081a28" stroke="#081a28"></path><path d="M900 25.7L900 0L837 54.7Z" fill="#297ea6" stroke="#297ea6"></path><path d="M852 600L900 600L900 461.3Z" fill="#00101c" stroke="#00101c"></path></g></svg>