<svg id="visual" viewBox="0 0 900 600" width="900" height="600" xmlns="http://www.w3.org/2000/svg" xmlns:xlink="http://www.w3.org/1999/xlink" version="1.1"><rect width="900" height="600" fill="#001829"></rect><g><g transform="translate(864 272)"><path d="M0 -34.7L24.5 -24.5L34.7 0L24.5 24.5L0 34.7L-24.5 24.5L-34.7 0L-24.5 -24.5Z" fill="none" stroke="#297EA6" stroke-width="2"></path></g><g transform="translate(725 425)"><path d="M0 -19L13.4 -13.4L19 0L13.4 13.4L0 19L-13.4 13.4L-19 0L-13.4 -13.4Z" fill="none" stroke="#297EA6" stroke-width="2"></path></g><g transform="translate(707 232)"><path d="M0 -24L17 -17L24 0L17 17L0 24L-17 17L-24 0L-17 -17Z" fill="none" stroke="#297EA6" stroke-width="2"></path></g><g transform="translate(617 542)"><path d="M0 -15L10.6 -10.6L15 0L10.6 10.6L0 15L-10.6 10.6L-15 0L-10.6 -10.6Z" fill="none" stroke="#297EA6" stroke-width="2"></path></g><g transform="translate(99 7)"><path d="M0 -21L14.8 -14.8L21 0L14.8 14.8L0 21L-14.8 14.8L-21 0L-14.8 -14.8Z" fill="none" stroke="#297EA6" stroke-width="2"></path></g><g transform="translate(385 443)"><path d="M0 -15L10.6 -10.6L15 0L10.6 10.6L0 15L-10.6 10.6L-15 0L-10.6 -10.6Z" fill="none" stroke="#297EA6" stroke-width="2"></path></g><g transform="translate(405 142)"><path d="M0 -21L14.8 -14.8L21 0L14.8 14.8L0 21L-14.8 14.8L-21 0L-14.8 -14.8Z" fill="none" stroke="#297EA6" stroke-width="2"></path></g><g transform="translate(520 43)"><path d="M0 -25L17.7 -17.7L25 0L17.7 17.7L0 25L-17.7 17.7L-25 0L-17.7 -17.7Z" fill="none" stroke="#297EA6" stroke-width="2"></path></g><g transform="translate(211 43)"><path d="M0 -25L17.7 -17.7L25 0L17.7 17.7L0 25L-17.7 17.7L-25 0L-17.7 -17.7Z" fill="none" stroke="#297EA6" stroke-width="2"></path></g><g transform="translate(224 167)"><path d="M0 -15L10.6 -10.6L15 0L10.6 10.6L0 15L-10.6 10.6L-15 0L-10.6 -10.6Z" fill="none" stroke="#297EA6" stroke-width="2"></path></g><g transform="translate(325 151)"><path d="M0 -28L19.8 -19.8L28 0L19.8 19.8L0 28L-19.8 19.8L-28 0L-19.8 -19.8Z" fill="none" stroke="#297EA6" stroke-width="2"></path></g><g transform="translate(35 282)"><path d="M0 -31L21.9 -21.9L31 0L21.9 21.9L0 31L-21.9 21.9L-31 0L-21.9 -21.9Z" fill="none" stroke="#297EA6" stroke-width="2"></path></g><g transform="translate(604 223)"><path d="M0 -20L14.1 -14.1L20 0L14.1 14.1L0 20L-14.1 14.1L-20 0L-14.1 -14.1Z" fill="none" stroke="#297EA6" stroke-width="2"></path></g><g transform="translate(813 145)"><path d="M0 -21L14.8 -14.8L21 0L14.8 14.8L0 21L-14.8 14.8L-21 0L-14.8 -14.8Z" fill="none" stroke="#297EA6" stroke-width="2"></path></g><g transform="translate(738 499)"><path d="M0 -22L15.6 -15.6L22 0L15.6 15.6L0 22L-15.6 15.6L-22 0L-15.6 -15.6Z" fill="none" stroke="#297EA6" stroke-width="2"></path></g><g transform="translate(563 301)"><path d="M0 -25L17.7 -17.7L25 0L17.7 17.7L0 25L-17.7 17.7L-25 0L-17.7 -17.7Z" fill="none" stroke="#297EA6" stroke-width="2"></path></g><g transform="translate(762 355)"><path d="M0 -21L14.8 -14.8L21 0L14.8 14.8L0 21L-14.8 14.8L-21 0L-14.8 -14.8Z" fill="none" stroke="#297EA6" stroke-width="2"></path></g><g transform="translate(200 351)"><path d="M0 -31L21.9 -21.9L31 0L21.9 21.9L0 31L-21.9 21.9L-31 0L-21.9 -21.9Z" fill="none" stroke="#297EA6" stroke-width="2"></path></g><g transform="translate(36 488)"><path d="M0 -12L8.5 -8.5L12 0L8.5 8.5L0 12L-8.5 8.5L-12 0L-8.5 -8.5Z" fill="none" stroke="#297EA6" stroke-width="2"></path></g><g transform="translate(111 496)"><path d="M0 -22L15.6 -15.6L22 0L15.6 15.6L0 22L-15.6 15.6L-22 0L-15.6 -15.6Z" fill="none" stroke="#297EA6" stroke-width="2"></path></g><g transform="translate(59 576)"><path d="M0 -27L19.1 -19.1L27 0L19.1 19.1L0 27L-19.1 19.1L-27 0L-19.1 -19.1Z" fill="none" stroke="#297EA6" stroke-width="2"></path></g><g transform="translate(258 540)"><path d="M0 -19L13.4 -13.4L19 0L13.4 13.4L0 19L-13.4 13.4L-19 0L-13.4 -13.4Z" fill="none" stroke="#297EA6" stroke-width="2"></path></g><g transform="translate(474 446)"><path d="M0 -14L9.9 -9.9L14 0L9.9 9.9L0 14L-9.9 9.9L-14 0L-9.9 -9.9Z" fill="none" stroke="#297EA6" stroke-width="2"></path></g><g transform="translate(637 375)"><path d="M0 -32L22.6 -22.6L32 0L22.6 22.6L0 32L-22.6 22.6L-32 0L-22.6 -22.6Z" fill="none" stroke="#297EA6" stroke-width="2"></path></g></g></svg>